<?xml version="1.0" encoding="utf-8"?>
<!-- Generator: Adobe Illustrator 25.0.0, SVG Export Plug-In . SVG Version: 6.00 Build 0)  -->
<svg version="1.1" id="Layer_1" xmlns="http://www.w3.org/2000/svg" xmlns:xlink="http://www.w3.org/1999/xlink" x="0px" y="0px"
	 viewBox="0 0 150 150" style="enable-background:new 0 0 150 150;" xml:space="preserve">
<style type="text/css">
	.st0{fill:#FFFFFF;}
	.st1{fill:#DB2C27;}
	.st2{fill:#FEFEFE;}
	.st3{fill:#FDFDFD;}
	.st4{fill:#FCFCFC;}
</style>
<g>
	<path class="st0" d="M0,75.1C0,50.5,0,26,0,1.5c0-1,0.1-1.4,1.3-1.4c49.1,0,98.3,0,147.4,0c1,0,1.3,0.2,1.3,1.3
		c0,49.1,0,98.3,0,147.4c0,1.2-0.3,1.3-1.4,1.3c-49.1,0-98.2,0-147.3,0c-1.1,0-1.4-0.2-1.4-1.3C0,124.2,0,99.6,0,75.1z"/>
	<path class="st1" d="M127.8,106c2.5,5.3,1,8.9-4.4,10.5c2.2,3.6,4,7.4,5.4,11.4c0.3,0.9,0.7,1.8-0.3,2.5c-0.9,0.6-1.6,0.2-2.4-0.2
		c-2-1.1-4-2.2-6.1-3.4c-0.7,2.5-1.3,5-2.3,7.3c-0.2,0.4-0.3,0.9-0.6,1.3c-0.7,0.9-2,0.7-2.6-0.3c-0.4-0.7-0.8-1.4-1.2-2.3
		c-0.4,2.5-0.7,4.9-1.1,7.2c-0.1,0.3-0.1,0.7-0.2,1c-0.2,0.7-0.6,1.2-1.4,1.3c-0.8,0.1-1.3-0.3-1.6-1c-1.3-2.5-2.6-5-4-7.6
		c-0.7,0.8-1.4,1.6-2.2,2.4c-1.2,1.3-2.5,2.5-3.7,3.7c-0.6,0.6-1.3,1.2-2.3,0.7c-1-0.5-0.9-1.5-0.8-2.4c0.2-1.8,0.2-3.6,0.4-5.4
		c0.1-0.8-0.2-1-0.9-0.9c-12.3,1-24.6,1.1-36.9,0.9c-4.4-0.1-8.9,0.2-13.3-0.4c-8.2-1-15.5-3.7-20.2-11.2c-2.8-4.5-3.9-9.6-4.2-14.8
		c-1.4-20-0.9-40-1.5-60c-0.3-10.4-0.7-20.7-2-31c-0.1-0.8,0-1.4,0.5-2c0.8-0.9,1.5-1.9,2.2-2.9c0.3-0.5,0.6-0.9,0.6-1.5
		c0-1.3,1.1-1.9,2.2-1.4C23.5,7.9,24.1,8,24.7,8C43.9,8,63,8.1,82.1,8.1c10,0,19.9,0.1,29.9,0.2c1.9,0,2.2,0.4,2.2,2.3
		c0,11.1,0.1,22.2,0.5,33.3c0.2,7.3,0.6,14.5,1,21.7c0.4,5.5,0.8,11,1.4,16.4c0.1,0.6,0,0.9,0.8,0.7c5-1.2,8.6,1.8,8.3,6.9
		c-0.1,1.2,0.1,1.7,1.4,2c2.9,0.7,5,3.8,5,7C132.8,102.4,131.3,104.7,127.8,106z"/>
	<path class="st0" d="M113.4,78.5c-1.9-1-3.8-1.3-5.7-0.8c-1.8,0.5-3.2,1.5-4,3.2c-0.4,0.7-0.6,0.7-1.3,0.4
		c-3.6-1.7-7.6-0.6-9.5,2.5c-0.7,1.1-0.3,2.7-1.2,3.5c-0.8,0.7-2.3,0.5-3.4,1.2c-4.2,2.5-5.1,7.6-2.1,11.4c0.3,0.4,0.8,0.6,0.1,1.1
		c-2,1.5-3,3.5-2.4,6c0.6,2.7,2.3,4.3,4.9,5c0.4,0.1,0.7,0.2,1.1,0.3c-2.4,5,1.9,8.5,5.6,8c1.4-0.2,1.6,0.3,1.5,1.6
		c-0.4,3.4-0.3,3.3-3.7,3.4c-9.8,0.5-19.7,0.9-29.6,0.5c-6.5-0.2-13-0.2-19.4-1.4c-3-0.6-5.8-1.8-8.3-3.8c-3.6-2.8-4.8-6.8-5.7-11
		c-1.7-8-1.8-16-1.9-24.1c-0.1-9.6-0.1-19.2-0.2-28.8c-0.1-10-0.8-20-2-30c-0.6-4.8-1.2-9.6-2.1-14.4c-0.2-1,0.2-1.1,1.1-1.1
		c16.3,0,32.5,0.1,48.8,0.1c11.8,0,23.5,0.1,35.3,0.1c1.3,0,1.6,0.4,1.6,1.6c-0.1,14.3,0.2,28.6,0.9,42.9c0.3,7.1,0.9,14.3,1.4,21.4
		C113.4,77.7,113.4,78,113.4,78.5z"/>
	<path class="st0" d="M121.6,101.3c0,7.5-6.5,13.7-14.1,13.6c-7.7-0.1-13.9-6.2-14-13.6c0-7.5,6.3-13.6,14.1-13.6
		C115.3,87.7,121.6,93.8,121.6,101.3z"/>
	<path class="st0" d="M110.1,123.2c0.1,4.1,0.2,8.1-0.5,12.5c-1-1.9-1.8-3.4-2.6-5c-1-2-2.1-2.1-3.5-0.3c-1.3,1.6-2.5,3.2-4.2,4.7
		c0.3-4.3,0.6-8.4,0.9-12.6C103.3,125.2,106.6,125.2,110.1,123.2z"/>
	<path class="st2" d="M121.2,119.1c1.2,2.1,2.3,4.1,3.3,6.6c-1.7-0.9-3.1-1.7-4.5-2.4c-1.6-0.9-2.5-0.5-2.9,1.3
		c-0.4,1.8-0.8,3.7-1.4,5.5c-1.8-2.4-2.5-4.6-2.3-8.1C116.6,122.8,119.2,121.9,121.2,119.1z"/>
	<path class="st2" d="M129.5,99.1c0,2.4-1.7,4.2-3.7,3.9c-0.7-0.1-1.1-0.4-1.1-1.2c0.1-2.1-0.2-4.1-1-6c-0.3-0.7,0-0.9,0.6-1.1
		C126.9,93.8,129.5,96,129.5,99.1z"/>
	<path class="st3" d="M90.5,98.8c-2.4-1.1-3.4-3.1-2.6-5.3c0.8-2.1,3.2-3.4,5.3-2.9c0.7,0.2,0.6,0.5,0.3,0.9
		C91.9,93.7,91,96.1,90.5,98.8z"/>
	<path class="st2" d="M113.6,85.6c-2.3-0.8-4.5-1.2-6.7-1c-0.9,0.1-1-0.4-0.8-1c0.2-1.3,0.9-2.3,2.2-2.7c1.5-0.5,2.9-0.2,4.1,0.9
		C113.3,82.7,113.8,83.9,113.6,85.6z"/>
	<path class="st3" d="M123.1,89.5c0,0.2,0,0.7-0.2,1.1c-0.4,1-1.2,1.1-1.9,0.3c-1-1.2-2-2.3-3.3-3.1c-0.8-0.5-0.6-0.9,0-1.3
		c1.1-0.9,2.4-1.2,3.7-0.6C122.8,86.5,123.1,87.8,123.1,89.5z"/>
	<path class="st3" d="M90.8,108.9c-1.2,0-2.4-0.4-3.2-1.5c-1.3-1.9-0.2-4.4,2.2-4.6c0.7-0.1,0.7,0.3,0.8,0.7c0.1,1.5,0.5,3,1.2,4.3
		C92.3,108.9,91.8,109,90.8,108.9z"/>
	<path class="st3" d="M105.4,121.4c-1.3,0.1-2.3-0.3-3-1.4c-0.4-0.7-0.4-1.4,0-2.1c0.4-0.7,1-0.4,1.6-0.3c1.1,0.1,2.2,0.2,3.3,0.4
		c0.5,0.1,1.3-0.6,1.4,0.4c0.1,0.9,0.2,1.9-0.9,2.3C107,121.2,106.3,121.5,105.4,121.4z"/>
	<path class="st4" d="M102.3,85.3c-1.9,0.6-3.5,1.4-5,2.5c-0.4,0.3-0.7,0.7-1.4,0.3c-0.6-0.4-0.7-0.9-0.6-1.5
		c0.2-2.5,3.1-3.9,5.6-2.7C101.4,84.3,102,84.5,102.3,85.3z"/>
	<path class="st3" d="M123.9,106.4c1.4,1.4,2,2.8,1.7,4.6c-0.2,1.2-0.9,1.9-2,2.2c-1,0.2-1.6-0.4-2.1-1.3c-0.2-0.4-0.3-0.6,0-1
		C122.6,109.6,123.3,108.1,123.9,106.4z"/>
	<path class="st3" d="M99,115.9c-1.4,0.8-2.6,1.3-4,1.1c-1.2-0.1-2.2-0.6-2.4-1.9c-0.3-1.3,0.8-2,1.6-2.7c0.3-0.3,0.5-0.1,0.7,0.1
		C96,113.9,97.4,114.9,99,115.9z"/>
	<path class="st4" d="M112.2,117.5c2.1-0.8,3.7-1.4,5.1-2.4c0.3-0.2,0.6-0.7,1-0.4c0.4,0.3,0.7,0.8,0.6,1.4c-0.2,1.2-0.8,2.2-2,2.7
		c-1.2,0.5-2.4,0.4-3.4-0.3C113.1,118.2,112.8,117.9,112.2,117.5z"/>
	<path class="st1" d="M68.1,18.2c8.3,0,16.7,0,25,0c2,0,2.4,0.4,2.4,2.4c0,12.3,0,24.5,0,36.8c0,1.9-0.4,2.3-2.3,2.3
		c-16.1,0-32.3,0-48.4,0c-1.8,0-2.2-0.4-2.3-2.2c-0.6-11.9-1.3-23.8-2-35.7c-0.2-3.8-0.1-3.9,3.6-3.9c8,0,16,0,24,0
		C68.1,18,68.1,18.1,68.1,18.2z"/>
	<path class="st1" d="M62.8,72.5c6.2,0,12.4,0,18.6,0c0.5,0,1,0,1.5,0.1c0.8,0.1,1.2,0.6,1.2,1.4c0,0.8-0.3,1.4-1,1.6
		c-0.6,0.1-1.2,0.2-1.7,0.2c-12.4,0-24.8,0-37.1,0c-1.9,0-2.8-0.5-2.8-1.6c0-1.1,0.8-1.6,2.7-1.6C50.4,72.5,56.6,72.5,62.8,72.5z"/>
	<path class="st1" d="M61.9,85.9c3.8,0,7.5,0,11.3,0c1.5,0,2.4,0.6,2.3,1.6c-0.2,1.3-1.1,1.6-2.2,1.6c-7.6,0-15.1,0-22.7,0
		c-1.1,0-2.1-0.3-2.2-1.6c0-1.4,1-1.6,2.1-1.6C54.3,85.9,58.1,85.9,61.9,85.9z"/>
	<path class="st1" d="M61.1,102.1c-1.9,0-3.9,0-5.8,0c-1.1,0-1.8-0.5-1.9-1.6c0-1.1,0.7-1.6,1.8-1.6c4,0,8.1,0,12.1,0
		c1.1,0,1.8,0.5,1.8,1.7c0,1.1-0.8,1.5-1.9,1.5C65.2,102.1,63.1,102.1,61.1,102.1z"/>
	<path class="st1" d="M116,98.3c0,0.7-0.4,1.1-0.9,1.5c-2.9,2.5-5.5,5.2-8,8.1c-1.2,1.4-2.1,1.3-3.2-0.2c-1.4-1.8-2.7-3.7-4.1-5.5
		c-0.7-0.9-1-1.8,0-2.6c1.1-0.8,1.9-0.3,2.6,0.7c0.7,1,1.6,2,2.2,3.1c0.8,1.3,1.3,1,2.1,0c1.9-2.2,4-4.2,6.2-6.2
		c0.6-0.5,1.2-0.8,2-0.4C115.7,97.2,115.9,97.7,116,98.3z"/>
	<path class="st0" d="M68,21.4c7.6,0,15.2,0,22.8,0c1.1,0,1.4,0.3,1.4,1.4c0,10.8,0,21.6,0,32.4c0,1-0.2,1.4-1.3,1.4
		c-14.7,0-29.4,0-44.1,0c-1.1,0-1.4-0.4-1.4-1.4c-0.3-6.2-0.6-12.4-1-18.7c-0.2-4.7-0.5-9.4-0.8-14.1c-0.1-1,0.1-1.3,1.2-1.3
		c7.7,0,15.4,0,23.1,0C68,21.2,68,21.3,68,21.4z"/>
	<path class="st1" d="M67.8,39c-4.3,0-7.7-3.1-7.7-7.2c0-4.1,3.1-7.1,7.4-7.2c4.5,0,8,3.1,8.1,7.1C75.5,35.8,72.1,39,67.8,39z"/>
	<path class="st1" d="M69.1,41.6c5,0,8.5,2.3,10.5,6.9c0.7,1.6,1.1,3.2,1.5,4.9c0.2,1-0.2,1.8-1.3,2c-1,0.2-1.6-0.3-1.9-1.2
		c-0.3-1-0.5-2.1-0.8-3.1c-2.2-6.5-9.5-8.4-14.6-3.8c-1.7,1.5-2.9,3.4-3.3,5.7c-0.1,0.3-0.1,0.7-0.3,1c-0.3,0.9-1,1.4-1.9,1.1
		c-0.9-0.3-1.3-0.9-1.1-1.9C56.7,46.5,62.4,41.6,69.1,41.6z"/>
</g>
<g>
	<g>
		<g>
			<g>
				<path class="st1" d="M48.3,115.2c0,0.5-0.1,0.9-0.2,1.4l-0.6-0.6c0.1-0.2,0.1-0.5,0.1-0.7c0-2-1.6-3.6-3.6-3.6
					c-2,0-3.6,1.6-3.6,3.6c0,0.3,0,0.5,0.1,0.7l-0.6,0.6c-0.1-0.4-0.2-0.9-0.2-1.4c0-2.4,1.9-4.3,4.3-4.3
					C46.4,110.9,48.3,112.8,48.3,115.2z"/>
				<path class="st1" d="M44,112.8l-3.1,3.1l-0.3,0.3l-0.6,0.6c0.5,1.3,1.7,2.3,3.1,2.6c0,0,0.1,0,0.1,0c0,0,0,0,0,0
					c0,0,0.1,0,0.1,0c0,0,0.1,0,0.1,0c0.2,0,0.4,0,0.5,0c1.5,0,2.9-0.8,3.6-2c0.1-0.2,0.3-0.4,0.4-0.7c0,0,0,0,0,0L44,112.8z
					 M46.9,117.2c-0.6,0.9-1.7,1.5-2.9,1.5c-1.2,0-2.3-0.6-2.9-1.5c-0.1-0.1-0.1-0.2-0.2-0.2l0.2-0.2l2.8-2.8l2.8,2.8l0.2,0.2
					C47,117,47,117.1,46.9,117.2z"/>
				<g>
					<rect x="42.9" y="115.8" class="st1" width="0.9" height="0.9"/>
					<rect x="42.9" y="117" class="st1" width="0.9" height="0.9"/>
					<rect x="44.1" y="115.8" class="st1" width="0.9" height="0.9"/>
					<rect x="44.1" y="117" class="st1" width="0.9" height="0.9"/>
				</g>
			</g>
		</g>
	</g>
	<g>
		<g>
			<g>
				<g>
					<path class="st1" d="M51,115.1c-0.3-0.1-0.5-0.3-0.6-0.6c-0.2-0.3-0.2-0.5-0.2-0.9c0-0.3,0.1-0.6,0.2-0.9
						c0.2-0.3,0.4-0.5,0.6-0.6c0.3-0.1,0.6-0.2,0.9-0.2c0.3,0,0.6,0.1,0.8,0.2c0.2,0.1,0.4,0.3,0.6,0.5l-0.6,0.5
						c-0.2-0.3-0.5-0.4-0.8-0.4c-0.2,0-0.3,0-0.5,0.1c-0.1,0.1-0.2,0.2-0.3,0.3c-0.1,0.1-0.1,0.3-0.1,0.5s0,0.3,0.1,0.5
						c0.1,0.1,0.2,0.2,0.3,0.3c0.1,0.1,0.3,0.1,0.5,0.1c0.3,0,0.6-0.1,0.8-0.4l0.6,0.5c-0.2,0.2-0.4,0.3-0.6,0.5
						c-0.2,0.1-0.5,0.2-0.8,0.2C51.6,115.3,51.3,115.2,51,115.1z"/>
					<path class="st1" d="M54.5,112.7h-1V112h2.9v0.7h-1v2.5h-0.9V112.7z"/>
				</g>
			</g>
			<g>
				<path d="M57.4,112h0.9v2.5h1.6v0.7h-2.5V112z"/>
				<path d="M60.5,114.9c-0.3-0.3-0.4-0.6-0.4-1.1V112H61v1.8c0,0.5,0.2,0.8,0.6,0.8c0.4,0,0.6-0.3,0.6-0.8V112h0.9v1.8
					c0,0.5-0.1,0.9-0.4,1.1c-0.3,0.3-0.6,0.4-1.1,0.4C61.1,115.3,60.7,115.2,60.5,114.9z"/>
				<path d="M65.7,115.3l-0.7-1l-0.7,1h-1l1.2-1.6l-1.1-1.6h1l0.6,0.9l0.6-0.9h1l-1.1,1.6l1.2,1.7H65.7z"/>
				<path d="M71.4,115.1c-0.3-0.1-0.5-0.3-0.6-0.6c-0.2-0.3-0.2-0.5-0.2-0.9c0-0.3,0.1-0.6,0.2-0.9c0.2-0.3,0.4-0.5,0.6-0.6
					c0.3-0.1,0.6-0.2,0.9-0.2c0.3,0,0.7,0.1,0.9,0.2c0.3,0.1,0.5,0.3,0.6,0.6c0.2,0.3,0.2,0.5,0.2,0.9c0,0.3-0.1,0.6-0.2,0.9
					c-0.2,0.3-0.4,0.5-0.6,0.6c-0.3,0.1-0.6,0.2-0.9,0.2C72,115.3,71.7,115.2,71.4,115.1z M72.8,114.4c0.1-0.1,0.2-0.2,0.3-0.3
					c0.1-0.1,0.1-0.3,0.1-0.5s0-0.3-0.1-0.5c-0.1-0.1-0.2-0.2-0.3-0.3c-0.1-0.1-0.3-0.1-0.4-0.1c-0.2,0-0.3,0-0.4,0.1
					c-0.1,0.1-0.2,0.2-0.3,0.3c-0.1,0.1-0.1,0.3-0.1,0.5s0,0.3,0.1,0.5c0.1,0.1,0.2,0.2,0.3,0.3c0.1,0.1,0.3,0.1,0.4,0.1
					C72.5,114.6,72.7,114.5,72.8,114.4z"/>
				<path d="M77.5,115.3l0-1.7l-0.8,1.4h-0.4l-0.8-1.4v1.7h-0.8V112h0.8l1.1,1.9l1.1-1.9h0.8l0,3.2H77.5z"/>
				<path d="M81.3,114.5v0.7h-2.6V112h2.5v0.7h-1.6v0.5h1.4v0.7h-1.4v0.6H81.3z"/>
				<g>
					<polygon class="st1" points="69.2,112 69.2,113 70.2,113.6 70.2,112 					"/>
					<polygon class="st1" points="68,112 67.1,112 67.1,113.6 68,113 					"/>
					<polygon points="68.6,112.9 68.1,113.2 67.1,114 67.1,115.3 68,115.3 68,114 69.2,114 69.2,115.3 70.2,115.3 70.2,114 
						69.1,113.2 					"/>
				</g>
			</g>
		</g>
		<g>
			<path d="M50.2,116.4h0.3v1.7h1v0.3h-1.4V116.4z"/>
			<path d="M51.9,117.5v-1.1h0.3v1.1c0,0.2,0,0.3,0.1,0.4c0.1,0.1,0.2,0.1,0.4,0.1c0.2,0,0.3,0,0.4-0.1c0.1-0.1,0.1-0.2,0.1-0.4
				v-1.1h0.3v1.1c0,0.3-0.1,0.5-0.2,0.7c-0.1,0.1-0.4,0.2-0.6,0.2c-0.3,0-0.5-0.1-0.6-0.2C52,118,51.9,117.8,51.9,117.5z"/>
			<path d="M55.7,116.4l-0.7,1l0.7,1h-0.4l-0.5-0.8l-0.5,0.8h-0.4l0.7-1l-0.7-1h0.4l0.5,0.7l0.5-0.7H55.7z"/>
			<path d="M56,117.5v-1.1h0.3v1.1c0,0.2,0,0.3,0.1,0.4c0.1,0.1,0.2,0.1,0.4,0.1c0.2,0,0.3,0,0.4-0.1c0.1-0.1,0.1-0.2,0.1-0.4v-1.1
				h0.3v1.1c0,0.3-0.1,0.5-0.2,0.7c-0.1,0.1-0.4,0.2-0.6,0.2c-0.3,0-0.5-0.1-0.6-0.2C56.1,118,56,117.8,56,117.5z"/>
			<path d="M58.2,116.4h0.9c0.2,0,0.4,0.1,0.6,0.2c0.1,0.1,0.2,0.3,0.2,0.4v0c0,0.3-0.2,0.5-0.5,0.6l0.5,0.7h-0.4l-0.5-0.7h-0.4v0.7
				h-0.3V116.4z M59,117.3c0.1,0,0.2,0,0.3-0.1c0.1-0.1,0.1-0.1,0.1-0.2v0c0-0.2-0.1-0.3-0.4-0.3h-0.5v0.7H59z"/>
			<path d="M60.7,117.6l-0.8-1.2h0.4l0.5,0.9l0.6-0.9h0.4l-0.8,1.2v0.8h-0.3V117.6z"/>
			<path d="M63.7,116.4H64l0.9,2h-0.4l-0.2-0.5h-0.9l-0.2,0.5h-0.4L63.7,116.4z M64.2,117.6l-0.3-0.8l-0.3,0.8H64.2z"/>
			<path d="M65.2,116.4H66c0.2,0,0.4,0.1,0.5,0.2c0.1,0.1,0.2,0.3,0.2,0.5v0c0,0.2-0.1,0.4-0.2,0.5c-0.1,0.1-0.3,0.2-0.6,0.2h-0.4
				v0.6h-0.3V116.4z M65.9,117.4c0.1,0,0.2,0,0.3-0.1c0.1-0.1,0.1-0.1,0.1-0.3v0c0-0.1,0-0.2-0.1-0.3c-0.1-0.1-0.2-0.1-0.3-0.1h-0.4
				v0.7H65.9z"/>
			<path d="M67.1,116.4h0.8c0.2,0,0.4,0.1,0.5,0.2c0.1,0.1,0.2,0.3,0.2,0.5v0c0,0.2-0.1,0.4-0.2,0.5c-0.1,0.1-0.3,0.2-0.6,0.2h-0.4
				v0.6h-0.3V116.4z M67.8,117.4c0.1,0,0.2,0,0.3-0.1c0.1-0.1,0.1-0.1,0.1-0.3v0c0-0.1,0-0.2-0.1-0.3c-0.1-0.1-0.2-0.1-0.3-0.1h-0.4
				v0.7H67.8z"/>
			<path d="M69,116.4h0.3v1.7h1v0.3H69V116.4z"/>
			<path d="M70.7,116.4h0.3v2h-0.3V116.4z"/>
			<path d="M72.2,116.4h0.3l0.9,2h-0.4l-0.2-0.5h-0.9l-0.2,0.5h-0.4L72.2,116.4z M72.7,117.6l-0.3-0.8l-0.3,0.8H72.7z"/>
			<path d="M73.8,116.4h0.3l1.1,1.4v-1.4h0.3v2h-0.3l-1.1-1.4v1.4h-0.3V116.4z"/>
			<path d="M75.8,117.4L75.8,117.4c0-0.3,0.1-0.5,0.3-0.7c0.2-0.2,0.4-0.3,0.7-0.3c0.3,0,0.6,0.1,0.8,0.3l-0.2,0.3
				c-0.2-0.2-0.4-0.2-0.6-0.2c-0.2,0-0.3,0.1-0.5,0.2c-0.1,0.1-0.2,0.3-0.2,0.5v0c0,0.2,0.1,0.4,0.2,0.5c0.1,0.1,0.3,0.2,0.5,0.2
				c0.2,0,0.4-0.1,0.6-0.3l0.2,0.2c-0.2,0.2-0.5,0.3-0.8,0.3c-0.3,0-0.5-0.1-0.7-0.3C75.9,117.9,75.8,117.6,75.8,117.4z"/>
			<path d="M77.9,116.4h1.5v0.3h-1.1v0.5h1v0.3h-1v0.5h1.1v0.3h-1.5V116.4z"/>
			<path d="M79.9,117.8c0.2,0.2,0.4,0.3,0.6,0.3c0.1,0,0.2,0,0.3-0.1c0.1,0,0.1-0.1,0.1-0.2v0c0-0.1,0-0.1-0.1-0.2
				c-0.1,0-0.2-0.1-0.4-0.1c-0.2-0.1-0.4-0.1-0.5-0.2c-0.1-0.1-0.2-0.2-0.2-0.4v0c0-0.2,0.1-0.3,0.2-0.4c0.1-0.1,0.3-0.2,0.5-0.2
				c0.3,0,0.5,0.1,0.7,0.2l-0.2,0.3c-0.2-0.1-0.4-0.2-0.5-0.2c-0.1,0-0.2,0-0.2,0.1c-0.1,0-0.1,0.1-0.1,0.2v0c0,0.1,0,0.1,0.1,0.2
				c0.1,0,0.2,0.1,0.4,0.1c0.2,0.1,0.4,0.1,0.5,0.2c0.1,0.1,0.2,0.2,0.2,0.4v0c0,0.2-0.1,0.3-0.2,0.4c-0.1,0.1-0.3,0.2-0.5,0.2
				c-0.3,0-0.6-0.1-0.8-0.3L79.9,117.8z"/>
		</g>
	</g>
</g>
</svg>
