<?xml version="1.0" encoding="utf-8"?>
<!-- Generator: Adobe Illustrator 25.0.0, SVG Export Plug-In . SVG Version: 6.00 Build 0)  -->
<svg version="1.1" id="Layer_1" xmlns="http://www.w3.org/2000/svg" xmlns:xlink="http://www.w3.org/1999/xlink" x="0px" y="0px"
	 viewBox="0 0 150 150" style="enable-background:new 0 0 150 150;" xml:space="preserve">
<style type="text/css">
	.st0{display:none;fill:#FFFFFF;}
	.st1{fill:#DB2C27;}
	.st2{fill:#FFFFFF;}
	.st3{fill:#DA2C27;}
</style>
<g>
	<path class="st0" d="M0,25.2c0-8,0-16,0-24C0,0.2,0.2,0,1.2,0c32.5,0,65.1,0,97.6,0c16.6,0,33.3,0,49.9,0c1,0,1.3,0.1,1.3,1.2
		c0,30,0,59.9,0,89.9c-0.9,0-1.2-0.8-1.6-1.3c-3.6-4.6-7.1-9.2-10.7-13.8c-1-1.2-2.1-1.8-3.6-1.8c-19.4,0-38.8,0-58.1,0
		c-1.6,0-2.8,0.6-3.8,1.8c-3.3,4.4-6.6,8.8-10,13.2c-0.4,0.5-0.7,0.9-1,1.4c-1.1,2,0,4,2.3,4.1c2.3,0.1,4.6,0,6.9,0
		c1.8,0,2.1,0.3,2.2,2.1c0,0.9,0,1.8,0,2.6c-0.1,1.6-0.4,1.9-1.9,1.9c-2.9,0.1-5.8,0-8.6,0c-2,0-4,0-6,0c-2.6,0-2.7-0.1-2.7-2.8
		c0-0.5,0-1.1-0.1-1.6c-0.4-2.5-2.2-3.5-4.5-2.3c-3.7,1.9-7.2,4.1-10.8,6.2c-2.7,1.5-5.4,3.1-8.1,4.7c-2.6,1.6-2.6,3.9,0,5.5
		c6.2,3.7,12.5,7.3,18.8,10.8c2.5,1.4,4.5,0.3,4.7-2.6c0.1-0.8,0-1.6,0.1-2.3c0-0.9,0.5-1.4,1.5-1.5c0.9-0.1,1.9,0,2.8-0.2
		c1-0.2,1.9-0.6,1.9-1.9c0-1-0.9-1.7-2.1-1.8c-1.5-0.1-3-0.1-4.5,0c-2,0.1-3.2,1.3-3.3,3.4c-0.2,3-0.3,3-2.9,1.6c-4-2.3-8-4.6-12-7
		c-1.8-1-1.8-1.6,0-2.6c4.3-2.5,8.6-5,12.9-7.5c1.5-0.8,1.9-0.6,2,1.1c0,0.5,0,1,0.1,1.5c0.3,1.7,1.2,2.6,2.9,2.7
		c0.6,0.1,1.3,0,1.9,0c12.9,0,25.9,0,38.8,0c0.5,0,1,0,1.5,0c1.7,0.1,1.9,0.3,2,2c0,0.9,0,1.8,0,2.6c-0.1,1.7-0.3,2-2.1,2
		c-0.5,0-1,0-1.5,0c-7.8,0-15.5,0-23.3,0c-0.7,0-1.4-0.1-2,0.2c-0.8,0.3-1.3,0.9-1.3,1.8c0,0.8,0.6,1.3,1.3,1.6
		c0.8,0.3,1.5,0.3,2.3,0.3c2.4,0,2.5,0.2,2.5,2.6c0,1.5,0,3,0,4.5c0.1,2.7,1.1,3.7,3.8,3.7c19.1,0,38.3,0,57.4,0
		c2.9,0,3.6-0.7,3.6-3.5c0-4.3,0-8.7,0-13c0-0.3,0-0.6,0-0.9c0-1-0.4-1.9-1.6-1.9c-1.1-0.1-1.6,0.7-1.9,1.7
		c-0.1,0.6-0.1,1.2-0.1,1.8c0,3.4,0,6.8,0,10.2c0,1.8-0.3,2.1-2.1,2.2c-4.5,0-9.1,0-13.6,0c-1.8,0-2.1-0.3-2.1-2.1
		c0-12.1,0-24.1,0-36.2c0-0.2,0-0.4,0-0.6c0.1-0.4,0-1,0.5-1.1c0.5-0.1,0.8,0.2,1.1,0.6c0.9,1.1,1.7,2.1,2.5,3.2
		c1.6,2.1,3.2,4.1,4.7,6.1c1,1.3,2.2,2,3.9,1.9c1.1-0.1,2.2,0,3.4,0c1.1,0,1.6,0.5,1.6,1.6c0,0.7-0.1,1.4,0.1,2c0.3,1,0.9,1.7,2,1.6
		c1.1-0.1,1.4-0.9,1.5-1.9c0.2-3.4,0.2-3.4,3.6-3.4c1.7,0,3.4,0,5.1,0c1.3,0,2.5-0.2,3.3-1.4c0.1-0.2,0.4-0.3,0.6-0.3
		c0,18.6,0,37.1,0,55.6c0,1-0.2,1.2-1.2,1.2c-49.2,0-98.4,0-147.6,0c-1,0-1.2-0.2-1.2-1.2c0-25,0-50,0-75c0.3-0.1,0.6,0.2,0.7,0.4
		c0.9,1.1,2.1,1.4,3.4,1.5c0.4,0,0.9,0,1.3,0c18.2,0,36.5,0,54.8,0c0.9,0,1.8,0,2.6-0.2c1.5-0.4,2.2-1.2,2.3-2.7c0.1-2,0.1-4,0-6
		c-0.1-1.2-0.8-2-1.7-2c-1,0-1.6,0.7-1.7,2c-0.1,1.1,0,2.2,0,3.4c0,1.1-0.6,1.7-1.7,1.7c-0.4,0-0.9,0-1.3,0c-10,0-20.1,0-30.2,0
		c-0.3,0-0.6,0-0.9,0c-1.9-0.1-2.2-0.3-2.2-2.2c0-4.2,0-8.5,0-12.7c0-9,0-18.1,0-27.1c0-2.5,0.2-2.7,2.8-2.8c1.4,0,2.7,0,4.1,0
		c1.5,0.1,1.9,0.4,1.9,2c0.1,2.5,0,5.1,0,7.6c0,2.6,0.4,3,2.9,3c4.3,0,8.7,0,13,0c2.3,0,2.7-0.4,2.8-2.7c0-2.6,0-5.2,0-7.8
		c0-1.7,0.3-2,2.1-2.1c1.6,0,3.2-0.1,4.8,0c1.5,0.1,1.8,0.4,1.8,1.9c0.1,2.4,0,4.8,0,7.2c0,6,0,12.1,0,18.1c0,0.5,0,1.1,0,1.6
		c0.1,1.3,0.8,2,1.7,2c0.9,0,1.6-0.8,1.7-2c0.1-1.2,0-2.3,0-3.5c0-2.5,0.2-2.7,2.8-2.7c7.4,0,14.8,0,22.2,0c2.6,0,2.8,0.2,2.8,2.9
		c0,0.5,0,1.1,0.1,1.6c0.3,2.4,2.2,3.5,4.3,2.4c2-1,3.9-2.2,5.8-3.3c4.3-2.4,8.5-4.9,12.8-7.4c0.4-0.2,0.8-0.4,1.1-0.7
		c1.6-1.3,1.6-3.1,0.1-4.4c-1-0.8-2.2-1.4-3.3-2.1c-5.1-3-10.2-5.9-15.3-8.9c-0.2-0.1,0,0-0.1-0.1c-3.4-1.9-5.3-0.8-5.3,3.1
		c0,3.1-0.1,3.2-3.1,3.2c-7.2,0-14.4,0-21.7,0c-0.2,0-0.5,0-0.7,0c-2,0-2.3-0.3-2.3-2.3c0-2,0-4.1,0-6.1c0-2.9-0.9-3.9-3.9-3.9
		c-19,0-38.1,0-57.1,0c-1.3,0-2.4,0.2-3.3,1.2C0.7,25.1,0.4,25.3,0,25.2z"/>
	<path class="st1" d="M150,93.2c-0.8,1.7-2.2,2.3-4.1,2.2c-2.1-0.1-4.3,0.1-6.4-0.1c-1.5-0.1-1.9,0.4-1.7,1.8c0.1,0.5,0,1.1-0.1,1.6
		c-0.1,1.2-0.9,1.8-2,1.9c-1.1,0.1-1.9-0.6-2.3-1.7c-0.1-0.3-0.1-0.6-0.1-0.9c-0.1-2.8-0.1-3-2.9-2.7c-3.1,0.3-5.2-0.8-7-3.4
		c-2.1-3.1-4.5-5.9-6.8-8.9c-0.5,0.3-0.3,0.8-0.3,1.1c0,12.3,0,24.6,0,36.9c0,1.2,0.3,1.5,1.4,1.4c4.8-0.1,9.6-0.1,14.3,0
		c0.9,0,1.2-0.2,1.2-1.2c-0.1-4.1,0-8.1,0-12.2c0-1.7,1.1-2.8,2.4-2.7c1.3,0.2,2.1,0.9,2.1,2.3c0,5,0.1,10.1,0,15.1
		c0,2.1-1.3,3.1-3.5,3.1c-6.8,0-13.6,0-20.3,0c-12.5,0-25.1,0-37.6,0c-3.2,0-4.2-1-4.2-4.2c0-1.9,0-3.8,0-5.7c0-0.8-0.2-1.2-1-1.1
		s-1.8,0-2.6,0c-1.7-0.1-2.7-0.9-2.8-2.2c0-1.4,1.1-2.3,2.8-2.3c8.5,0,17,0,25.5,0c2.1,0,2.1,0,2.1-2.2c0-0.9-0.1-1.8,0-2.6
		c0.1-0.9-0.2-1.1-1.1-1.1c-3.8,0.1-7.6,0-11.4,0c-10.2,0-20.4,0-30.6,0c-2.8,0-4-1.2-4-4c0-0.7,0-1.3,0-2.2
		c-5.4,3.1-10.6,6.1-16,9.2c5.4,3.1,10.6,6.1,16,9.2c0-1.1,0-2,0-2.8c0.1-2.2,1.4-3.4,3.5-3.5c1.6,0,3.2,0,4.8,0
		c1.5,0,2.6,0.9,2.6,2.2c0,1.3-1,2.2-2.5,2.3c-1,0.1-2,0-3.1,0c-0.6,0-0.9,0.2-0.8,0.8c0,1,0,1.9,0,2.9c-0.1,2.9-2.5,4.3-5.1,2.8
		c-6.4-3.7-12.8-7.4-19.2-11.1c-2.6-1.5-2.6-4.4,0-5.9c6.4-3.7,12.8-7.4,19.2-11.1c2.5-1.5,5-0.1,5.1,2.9c0,0.1,0,0.2,0,0.3
		c0,1.1-0.4,2.6,0.2,3.2c0.7,0.8,2.2,0.2,3.4,0.2c4.6,0,9.3,0,13.9,0c1,0,1.2-0.3,1.2-1.2c-0.1-1.1-0.1-2.2,0-3.2
		c0.1-1.2-0.4-1.4-1.4-1.3c-2.3,0.1-4.6,0-6.9,0c-1.4,0-2.6-0.4-3.3-1.7c-0.7-1.4-0.3-2.6,0.6-3.8c3.7-4.8,7.3-9.6,11-14.4
		c0.8-1,1.7-1.5,3-1.5c19.9,0,39.8,0,59.7,0c1.3,0,2.2,0.5,3,1.5c4,5.2,8.1,10.4,12.1,15.7C150,91.8,150,92.5,150,93.2z"/>
	<path class="st1" d="M0,25.2c0.9-1.6,2.2-2.1,4.1-2.1c19.1,0.1,38.3,0,57.4,0c3.1,0,4.1,1,4.1,4.1c0,2.4,0,4.8,0,7.2
		c0,0.8,0.2,1,1.1,1c8.3,0,16.6,0,24.9,0c0.8,0,1.1-0.2,1.1-1c-0.1-1-0.1-2,0-3.1c0.1-2.5,2.5-4,4.7-2.8c6.7,3.8,13.3,7.6,19.9,11.5
		c2.2,1.3,2.2,4.2-0.1,5.5c-6.5,3.8-13.1,7.6-19.7,11.4c-2.3,1.3-4.8-0.2-4.9-2.8c-0.1-1.3,0.4-3-0.2-3.7c-0.8-0.8-2.6-0.3-3.9-0.3
		c-7.2,0-14.3,0-21.5,0c-1,0-1.4,0.2-1.3,1.3c0.1,1.5,0,3,0,4.5c0,1.4-0.9,2.4-2.2,2.5c-1.3,0-2.2-0.9-2.3-2.5c0-9,0-18,0-26.9
		c0-1.2-0.2-1.6-1.5-1.5c-1.7,0.1-3.3,0.1-5,0c-1.1-0.1-1.4,0.2-1.4,1.3c0.1,2.8,0,5.6,0,8.3c0,2.3-0.7,3-2.9,3c-4.7,0-9.4,0-14.1,0
		c-2.1,0-2.8-0.7-2.8-2.8c0-2.9,0-5.8,0-8.6c0-0.9-0.1-1.3-1.2-1.2c-1.8,0.1-3.5,0.1-5.3,0c-1.1-0.1-1.4,0.2-1.4,1.3
		c0.1,6.8,0,13.7,0,20.5c0,7,0,14,0,20.9c0,1,0.3,1.3,1.3,1.3c10.9,0,21.9,0,32.8,0c1,0,1.4-0.2,1.3-1.3c-0.1-1.3,0-2.5,0-3.8
		c0-1.3,1-2.3,2.2-2.2c1.2,0,2.2,1,2.2,2.3c0,2.2,0.1,4.3,0,6.4c0,1.6-1,2.6-2.5,2.9c-0.5,0.1-1,0.1-1.5,0.1c-19.2,0-38.4,0-57.5,0
		c-1.8,0-3.2-0.5-4-2.3C0,57.6,0,41.4,0,25.2z"/>
	<path class="st2" d="M111.9,82.8c0,10.1,0,19.8,0,29.4c0,3.1,0,6.2,0,9.2c0,0.8-0.2,1-1,1c-11.1,0-22.2,0-33.2,0
		c-1,0-1.1-0.3-1.1-1.2c0.1-1.4,0.1-2.8,0-4.2c-0.1-1,0.3-1.2,1.2-1.2c6.1,0,12.1,0,18.2,0c0.6,0,1.2,0,1.8-0.1
		c1.7-0.3,2.7-1.4,2.7-3.1c0-2.8,0-5.6,0-8.3c0-2.1-1.3-3.3-3.4-3.3c-6.3,0-12.6,0-18.9,0c-1.2,0-1.7-0.2-1.5-1.5
		c0.2-1.4-0.6-3.2,0.3-4.1c0.8-0.7,2.6-0.2,4-0.2c6.3,0,12.7,0,19,0c1.7,0,2.9-0.6,4-2C106.4,90,109.1,86.6,111.9,82.8z"/>
	<path class="st2" d="M109.7,78.4c-3.1,4.1-6,7.9-8.9,11.8c-0.3,0.4-0.6,0.6-1.2,0.6c-11,0-22,0-33.1,0c0,0-0.1,0-0.2-0.2
		c2.4-3.2,5-6.3,7.2-9.6c1.4-2.1,2.9-2.7,5.4-2.6c9.7,0.2,19.3,0.1,29,0.1C108.3,78.4,108.8,78.4,109.7,78.4z"/>
	<path class="st2" d="M118.7,78.4c5.2,0,10.2,0,15.1,0c0.4,0,0.7,0,1,0.4c3,3.9,6.1,7.8,9.3,12c-1.7,0-3.2,0-4.7,0
		c-3.4,0-6.7,0-10.1,0c-0.5,0-1,0-1.4-0.5C124.9,86.4,121.9,82.6,118.7,78.4z"/>
	<path class="st2" d="M21.4,49.6c0,6.9,0,13.8,0,20.6c0,1.1-0.2,1.4-1.4,1.4c-4.8-0.1-9.7-0.1-14.5,0c-1,0-1.2-0.2-1.2-1.2
		c0-13.9,0-27.8,0-41.7c0-0.9,0.2-1.1,1.1-1.1c4.9,0,9.8,0.1,14.6,0c1,0,1.3,0.2,1.3,1.3C21.4,35.7,21.4,42.7,21.4,49.6z"/>
	<path class="st2" d="M97,33.5c5.5,3.2,10.7,6.2,15.9,9.2c-0.2,0.5-0.6,0.6-0.9,0.8c-4.6,2.7-9.2,5.3-13.8,8c-1,0.6-1.3,0.5-1.2-0.7
		c0.1-0.5,0-1,0-1.5c-0.1-2.3-1.3-3.5-3.6-3.5c-6.2,0-12.4,0-18.6,0c-2.6,0-5.2-0.1-7.8,0c-1.4,0.1-1.7-0.4-1.5-1.6
		c0.1-1,0.1-2,0-3.1c-0.1-1,0.2-1.3,1.3-1.3c8.7,0,17.4,0,26,0c0.4,0,0.8,0,1.2,0c1.6-0.1,2.8-1.2,2.9-2.8C97.1,36,97,35,97,33.5z"
		/>
	<path class="st2" d="M43.6,27.5c1.5,0,2.9,0,4.4,0c0.8,0,1,0.2,1,1c0,2.1,0,4.2,0,6.3c0,0.8-0.2,1-1,1c-3,0-6,0-8.9,0
		c-0.7,0-1.1-0.1-1-0.9c0.1-2.1,0-4.3,0-6.4c0-0.7,0.2-0.9,0.9-0.9C40.5,27.6,42.1,27.5,43.6,27.5z"/>
</g>
<g>
	<g>
		<g>
			<path class="st3" d="M53.8,56.1c0,1.1-0.2,2.2-0.5,3.2l-1.4-1.4c0.1-0.6,0.2-1.2,0.2-1.8c0-4.7-3.8-8.5-8.5-8.5S35,51.4,35,56.1
				c0,0.6,0.1,1.2,0.2,1.8l-1.4,1.4c-0.3-1-0.5-2.1-0.5-3.2c0-5.7,4.6-10.3,10.3-10.3C49.2,45.8,53.8,50.4,53.8,56.1z"/>
			<path class="st3" d="M43.5,50.5L36,58l-0.6,0.6L34,60c1.3,3.1,4,5.4,7.3,6.1c0.1,0,0.2,0,0.3,0.1c0,0,0,0,0.1,0
				c0.1,0,0.2,0,0.3,0.1c0.1,0,0.1,0,0.2,0c0.4,0.1,0.9,0.1,1.3,0.1c3.6,0,6.8-1.9,8.7-4.7c0.3-0.5,0.6-1.1,0.9-1.6c0,0,0,0,0,0
				L43.5,50.5z M50.5,60.9c-1.5,2.2-4.1,3.7-7,3.7c-2.9,0-5.5-1.5-7-3.7c-0.1-0.2-0.3-0.4-0.4-0.6l0.6-0.6l6.8-6.8l6.8,6.8l0.6,0.6
				C50.8,60.6,50.7,60.8,50.5,60.9z"/>
			<g>
				<rect x="41" y="57.6" class="st3" width="2.2" height="2.2"/>
				<rect x="41" y="60.5" class="st3" width="2.2" height="2.2"/>
				<rect x="43.9" y="57.6" class="st3" width="2.2" height="2.2"/>
				<rect x="43.9" y="60.5" class="st3" width="2.2" height="2.2"/>
			</g>
		</g>
	</g>
</g>
</svg>
