<?xml version="1.0" encoding="utf-8"?>
<!-- Generator: Adobe Illustrator 25.0.0, SVG Export Plug-In . SVG Version: 6.00 Build 0)  -->
<svg version="1.1" id="Layer_1" xmlns="http://www.w3.org/2000/svg" xmlns:xlink="http://www.w3.org/1999/xlink" x="0px" y="0px"
	 viewBox="0 0 150 150" style="enable-background:new 0 0 150 150;" xml:space="preserve">
<style type="text/css">
	.st0{fill:#FFFFFF;}
	.st1{fill:#DB2C27;}
	.st2{fill:#FEFEFE;}
	.st3{fill:#FAFAFA;}
	.st4{fill:#F5F4F4;}
	.st5{fill:#DA3027;}
</style>
<g>
	<path class="st0" d="M149.7,136.3c0,4.2,0,8.4,0,12.7c0,0.6-0.1,0.9-0.7,0.7c-0.2,0-0.5,0-0.7,0c-48.9,0-97.7,0-146.6,0
		c-1,0-1.4-0.1-1.4-1.3c0-49,0-97.9,0-146.9c0-1,0.2-1.3,1.3-1.3c49,0,97.9,0,146.9,0c1.1,0,1.3,0.3,1.3,1.4c0,26.2,0,52.3,0,78.5
		c-0.7-0.1-0.7-0.7-0.9-1.2c-1.3-4.1-4-6.9-8.1-8.4c-1-0.4-1.4-1-1.4-2c0-0.6,0-1.2,0-1.7c0-1.3-0.6-2.3-1.9-2.6
		c-0.9-0.2-1.2-0.8-1.3-1.7c-0.2-1.8,0.3-3.2,1.9-4.3c4.4-3.1,6.4-7.5,6.5-12.9c0-2,0-4.1,0-6.1c0-1,0.3-1.7,1.4-1.9
		c1.1-0.2,1.5-1,1.5-2c0-2,0.4-4.1-0.1-6c-0.9-4.1-0.7-8.6-4-12c-2.6-2.8-5.7-4.5-9.6-4.5c-2.3,0-4.7,0.1-7,0
		c-6.5-0.4-12.8,4.4-13.7,11.7c-0.3,2.3-0.3,2.3-2.7,2.3c-2.6,0-5.2,0-7.9,0c-2.6,0-3.4,0.9-3.5,3.6c0,4.5,2.4,6.9,6.9,7
		c1.8,0,3.6,0,5.4,0c1.5,0.1,1.9,0.5,2,2c0.1,2.1,0,4.2,0,6.3c0,5.4,2.3,9.5,6.5,12.7c1.5,1.2,2.1,3,1.6,4.9c-0.2,0.5-0.5,0.8-1,0.9
		c-1.3,0.3-1.9,1.2-1.7,2.5c0.3,2.4-0.6,3.6-2.9,4.6c-4.2,1.9-6.7,5.3-7.1,10.1c-0.5,5.1-0.1,10.2-0.2,15.3c-0.1,3.5,0,7.1,0,10.6
		c0,1.8-0.3,2.1-2.1,2.1c-1.7,0-3.4,0-5.1,0c-2.3,0-4.3,0.6-5.5,2.9c-0.4,0.7-1.1,0.9-1.9,0.9c-1.7,0-3.5,0-5.2,0
		c-2,0-3.6,1.5-3.8,3.5c0,0.2,0,0.4,0,0.6c-0.1,4.2,1.2,5.5,5.4,5.5c5.3,0,10.6,0,15.9,0c2.1,0,2.3,0.2,2.4,2.3c0,3,0,5.9,0,8.9
		c0,2.7,0.6,3.3,3.4,3.3c11.5,0,22.9,0,34.4,0C147.6,137.4,148.6,136.7,149.7,136.3z"/>
	<path class="st1" d="M149.7,136.3c-0.7,1.2-1.7,1.6-3,1.6c-11.8,0-23.6,0-35.4,0c-2.4,0-3.1-0.8-3.1-3.1c0-3.3-0.1-6.7,0-10
		c0-1.2-0.2-1.5-1.5-1.5c-5.6,0.1-11.3,0-16.9,0c-3.9,0-5.4-1.5-5.4-5.5c0-1.1,0-2.2,0.7-3.2c1-1.4,2.4-1.9,4-1.9c1.7,0,3.4,0,5.1,0
		c0.6,0,1,0,1.3-0.7c1-2.2,2.9-2.9,5.1-2.9c2,0,4-0.1,6,0c1.2,0.1,1.6-0.2,1.6-1.5c-0.1-8.1,0-16.1,0-24.2c0-3.9,1.1-7.3,3.9-10.1
		c1.4-1.4,3.1-2.5,5.1-3c0.8-0.2,1.2-0.6,1.1-1.5c-0.1-0.7,0-1.5,0-2.2c0-1.7,0.6-2.3,2.3-2.7c0.2,0,0.5,0,0.6-0.2
		c0.5-0.6-0.1-4-0.7-4.4c-5-3.3-7.5-8.1-7.5-14.1c0-1.9-0.1-3.9,0-5.8c0.1-1.1-0.4-1.4-1.4-1.3c-2.3,0-4.7,0.2-7-0.1
		c-4.7-0.7-6.8-5.1-5.7-9.4c0.4-1.4,1.8-1.9,3.2-1.9c3.2,0,6.4,0,9.6,0c0.7,0,1,0,1-0.9c0.6-7.9,5.8-12.9,13.8-13.2
		c2.7-0.1,5.3,0,8,0.1c6.6,0.3,12.1,5.8,12.5,12.4c0.1,1-0.1,2,0.7,2.9c0.3,0.3,0.3,0.9,0.3,1.4c0,2,0,4.1,0,6.1
		c0,1.4-0.6,2.5-2.2,2.6c-0.9,0.1-0.8,0.5-0.9,1.1c-0.1,3,0.2,6.1-0.2,9.1c-0.7,4.6-3,8.1-6.8,10.7c-0.5,0.3-1.3,0.5-1.3,1.2
		c-0.1,1.1,0,2.2,0,3.3c0,0.4,0.4,0.2,0.7,0.3c1.6,0.3,2.5,1.1,2.3,2.6c-0.3,2.5,0.5,3.6,2.9,4.6c3.7,1.5,5.7,4.6,6.8,8.4
		c0.1,0.3-0.1,0.6,0.3,0.7c0,4.9,0,9.7,0,14.6c-0.4,1.2-1.3,1.8-2.6,1.7c-1.1-0.1-2-1-2.3-2.3c-0.2-0.7-0.2-1.4-0.2-2.2
		c0-3.2,0-6.4,0-9.6c0-2.6-1.1-4.7-3.2-6.2c-0.4-0.3-0.9-0.8-1.4-0.3c-0.4,0.4-0.1,0.9,0.1,1.3c1.1,2.2,1.4,4.6,1.4,7.1
		c0,6.1,0,12.1,0,18.2c0,0.7,0,1.4-0.2,2c-0.4,1.3-1.1,2.1-2.5,2.3c-1.7,0.2-1.7,0.3-1.7,2c0,1.6-0.1,3.3,0,4.9
		c0.4,5.2-3.9,10-9.8,10c-4,0-8,0-11.9,0c-2.1,0-2.1,0-2.1,2.1c0,1.7,0,3.5,0,5.2c0,1.5,0.2,1.7,1.7,1.7c5.1,0,10.2,0,15.3,0
		c4.2,0,8.4,0,12.7,0c1.7,0,1.8-0.2,1.8-1.8c0-6.6,0-13.3,0-19.9c0-0.8-0.1-1.6,0.2-2.3c0.5-1.1,1.2-1.9,2.5-2c1.2,0,2,0.5,2.4,1.7
		C149.7,117.7,149.7,127,149.7,136.3z"/>
	<path class="st0" d="M149.7,108.3c-0.8-0.9-1.6-1.8-3.1-1.3c-1.4,0.6-1.6,1.8-1.6,3.1c0,7.2,0,14.5,0,21.7c0,1.1-0.3,1.4-1.4,1.3
		c-9.8,0-19.7,0-29.5,0c-1.1,0-1.5-0.3-1.4-1.4c0.1-2.5,0.1-4.9,0-7.4c0-0.9,0.2-1.2,1.2-1.2c4.4,0.1,8.8,0,13.2,0
		c4.6,0,8.3-2.7,9.2-7.1c0.5-2.3,0.2-4.7,0.2-7.1c0-0.5,0-1,0-1.5c-0.1-0.8,0.1-1.2,1.1-1.2c2.6,0,3.2-0.7,3.2-3.3
		c0-6.5,0-13.1,0-19.6c0-2.4-0.3-4.7-1.7-6.6c-0.6-0.8,0.1-1.2,0.3-1.6c0.4-0.7,0.9-0.1,1.2,0.1c2.7,1.5,4.2,3.8,4.3,6.9
		c0.1,3.5,0,7.1,0,10.6c0,1.3,0.1,2.5,1.4,3.1c1.4,0.6,2.3-0.2,3.2-1.1C149.7,99.2,149.7,103.8,149.7,108.3z"/>
	<path class="st1" d="M0.6,108.3c0-8.4,0-16.8,0-25.2c0-6.5,3-10.8,9.1-13c0.7-0.2,0.9-0.5,0.8-1.2c-0.1-0.7,0-1.5,0-2.2
		c0-1.8,0.6-2.5,2.4-2.9c0.2,0,0.5,0,0.7-0.2c0.4-0.5,0-3.9-0.6-4.2c-5.5-3.5-7.9-8.6-7.7-15c0-0.7-0.2-1.2-0.7-1.6
		c-1.1-0.9-1.8-2-1.8-3.4c0-4.1-0.6-8.2,0.8-12.3c1.7-5.2,7.4-9.6,12.9-9.7c4.7-0.1,9.4-0.1,14.1,0c6.6,0.1,11,6,9.4,12.4
		c-0.3,1.2-0.8,2.3-1.7,3c-1,0.7-1,1.5-1,2.5c0.2,3.8,0.2,7.6,0,11.3C37,52,34.5,56,30.2,59.1c-0.8,0.6-1.6,3.7-1.1,4.5
		c0.2,0.3,0.5,0.2,0.8,0.2c1.4,0.2,2.3,1,2.1,2.5c-0.4,2.6,0.7,3.7,3,4.8c4.6,2.1,6.7,6,7,11c0.1,1.4-0.8,2.4-2.1,2.5
		c-1.2,0.1-2.3-0.7-2.4-2.1c-0.3-3.1-1.5-5.7-4.3-7.3c-0.4-0.2-0.9-0.7-1.2-0.3c-0.4,0.6-1.2,1-0.7,2c0.7,1.2,0.7,2.6,0.7,4
		c0,7.5,0,14.9,0,22.4c0,2.4-0.7,3.1-3.1,3.1c-1.2,0-1.3,0.5-1.3,1.4c0,1.1,0.4,1.3,1.3,1.2c2.4-0.1,4.8-0.1,7.1,0
		c1.2,0.1,1.4-0.4,1.4-1.5c-0.1-3.3,0-6.6,0-9.9c0-1.3,0.8-2.1,2-2.3c1.1-0.2,1.9,0.4,2.3,1.4c0.2,0.6,0.3,1.3,0.3,2
		c0,3.1,0,6.1,0,9.2c0,0.9,0.2,1.1,1.1,1.1c2.6,0,5.2-0.2,7.8,0.2c1.7,0.3,2.9,1.1,3.6,2.6c0.3,0.6,0.7,0.8,1.3,0.8
		c1.6,0,3.3,0,4.9,0c3.3,0.1,4.9,1.7,4.9,5c0,4.2-1.4,5.6-5.7,5.6c-5.6,0-11.3,0-16.9,0c-1,0-1.2,0.3-1.2,1.2c0.1,3.4,0,6.8,0,10.2
		c0,2.5-0.7,3.3-3.3,3.3c-11.7,0-23.4,0-35.1,0c-2.5,0-3.2-0.7-3.2-3.2C0.6,125.9,0.6,117.1,0.6,108.3z"/>
	<path class="st1" d="M75.1,106.9c-7.9,0-15.7,0-23.6,0c-2.5,0-3.2-0.7-3.2-3.2c0-6.5,0-13.1,0-19.6c0-0.7,0.1-1.4-0.9-1.6
		c-1.1-0.2-1.5-1.2-1.5-2.2c0-4.2-0.1-8.4,0-12.7c0-1.6,0.9-2.4,2.5-2.4c8.8,0,17.7,0,26.5,0c1.5,0,2.4,0.9,2.5,2.1
		c0.1,1.2-0.9,2.3-2.3,2.5c-0.4,0.1-0.9,0-1.3,0c-7.2,0-14.5,0-21.7,0c-1.4,0-1.7,0.4-1.6,1.7c0.1,1.8,0.1,3.6,0,5.4
		c0,0.9,0.2,1.2,1.2,1.2c4.6-0.1,9.1,0,13.7,0c11,0,21.9,0,32.9,0c1.2,0,1.6-0.3,1.5-1.5c-0.1-1.8-0.1-3.7,0-5.5
		c0.1-1.1-0.3-1.3-1.3-1.3c-3,0.1-6,0-9,0c-1.9,0-3.2-1.2-2.9-2.6c0.2-1.2,0.9-1.9,2.2-1.9c4.5,0,8.9,0,13.4,0
		c1.3,0,2.1,0.8,2.2,2.1c0.1,4.4,0,8.8,0,13.2c0,1-0.5,1.7-1.5,1.9c-0.9,0.2-1,0.7-1,1.4c0,6.6,0,13.3,0,19.9c0,2.3-0.8,3-3.1,3
		C91,106.9,83.1,106.9,75.1,106.9z"/>
	<path class="st0" d="M129,38c3.4,0,6.9,0,10.3,0c0.4,0,1.1-0.3,1,0.6c-0.2,3.5,0.5,7.1-0.6,10.5c-1.5,5.1-6.7,8.5-12,7.9
		c-5.6-0.6-9.9-5-10.2-10.5c-0.1-2.5,0-4.9-0.1-7.4c0-0.9,0.3-1.2,1.1-1.1C122.1,38,125.6,38,129,38z"/>
	<path class="st0" d="M136.3,91.5c0,3.1,0,6.1,0,9.2c0,0.8-0.2,1.1-1,1.1c-3.8,0-7.7,0-11.5,0c-0.8,0-1-0.2-1-1c0-6.8,0-13.7,0-20.5
		c0-2.6,1.8-4.2,4.3-4.2c0.8,0,1.6,0,2.3,0c4,0,6.7,2.7,6.8,6.6C136.3,85.6,136.3,88.6,136.3,91.5z"/>
	<path class="st0" d="M108.7,118.5c-6.2,0-12.3,0-18.5,0c-0.4,0-1.1,0.4-1.2-0.5c-0.1-1,0.6-0.8,1.2-0.8c1.9,0,3.8,0,5.7,0
		c2.4,0,3.1-0.6,3.7-2.9c0.2-1,0.9-0.7,1.5-0.7c7.2,0,14.4,0,21.5,0c0.4,0,0.8,0,1.2,0c2.3,0,3.4-1.1,3.5-3.4c0-1,0-2,0-3.1
		c0-0.6,0.2-0.8,0.8-0.9c4-0.3,4-0.3,4,3.6c0,1.2,0,2.4,0,3.6c0,3.2-1.7,4.9-4.9,4.9C121,118.5,114.8,118.5,108.7,118.5z"/>
	<path class="st0" d="M129.9,26.5c-3.8,0-7.6,0-11.4,0c-1.1,0-1.3-0.3-1.2-1.3c0.3-4.1,3.9-7.8,8-8.1c3.1-0.2,6.1-0.2,9.2,0
		c4.1,0.2,7.7,4,8,8.1c0.1,1-0.1,1.3-1.2,1.3C137.5,26.5,133.7,26.5,129.9,26.5z"/>
	<path class="st2" d="M112.8,94.3c0.1-3.8-0.3-8.4,0.2-13.1c0.2-2.7,1.8-4.7,4.2-6.1c0.3-0.2,0.9-0.6,1.1-0.3
		c0.3,0.5,1.2,0.9,0.8,1.7c-1,2.2-0.8,4.6-0.8,6.9c0,6.5,0,13.1,0,19.6c0,2.6,0.6,3.3,3.2,3.2c1.2,0,1.2,0.5,1.2,1.4
		c0,0.8,0,1.3-1.1,1.3c-2.5-0.1-4.9-0.1-7.4,0c-1,0-1.3-0.2-1.3-1.3C112.8,103.5,112.8,99.4,112.8,94.3z"/>
	<path class="st3" d="M123.5,31.2c6.2,0,12.4,0,18.6,0c0.7,0,1.4-0.1,1.4,1c0,1.2-0.5,1.2-1.4,1.2c-11.8,0-23.7,0-35.5,0
		c-0.9,0-1.9,0-2.6-0.7c-0.3-0.3-0.8-0.7-0.6-1.3c0.2-0.5,0.8-0.2,1.2-0.2C110.9,31.2,117.2,31.2,123.5,31.2z"/>
	<path class="st0" d="M129,68.4c1.7,0,3.4,0.1,5.1,0c0.9,0,1.1,0.2,1.1,1.1c0,2.7,0,2.7-2.7,2.2c-2.6-0.5-5.3-0.6-7.9,0
		c-1.7,0.4-1.7,0.4-1.7-1.3c0-0.4,0-0.8,0-1.2c-0.1-0.7,0.3-0.9,0.9-0.9C125.5,68.5,127.2,68.4,129,68.4z"/>
	<path class="st0" d="M125.8,61.4c1.9,0.4,3.7,0.5,5.5,0.1c0.4-0.1,0.9-0.1,0.7,0.5c-0.2,0.6,0.7,1.6-0.5,1.7c-1.7,0.1-3.4,0-5.1,0
		c-0.5,0-0.6-0.2-0.6-0.6C125.8,62.6,125.8,62.1,125.8,61.4z"/>
	<path class="st0" d="M5.2,106.8c0-8.2,0-16.4,0-24.6c0-3.1,1.5-5.4,4.1-7c0.4-0.2,0.9-0.9,1.4-0.2c0.3,0.5,0.8,1,0.3,1.8
		c-1.2,1.8-1.6,3.9-1.6,6.1c0,6.8,0,13.6,0,20.4c0,2.3,0.8,3.1,3,3.1c1.1,0,1.3,0.3,1.3,1.3c-0.1,2.1-0.1,4.3,0,6.4
		c0.2,5.5,4,9.1,9.4,9.1c4.4,0,8.7,0,13.1,0c1.1,0,1.4,0.3,1.4,1.4c-0.1,2.5-0.1,5,0,7.6c0,0.9-0.3,1.1-1.1,1.1c-10,0-20.1,0-30.1,0
		c-1,0-1-0.5-1-1.2C5.2,123.6,5.2,115.2,5.2,106.8C5.2,106.8,5.2,106.8,5.2,106.8z"/>
	<path class="st0" d="M32.7,41.6c-0.1,2.6,0.3,5.2-0.5,7.8c-1.6,4.8-6.4,8.1-11.6,7.7c-5.3-0.4-9.7-4.4-10.4-9.5
		c-0.5-3.2-0.5-3.2,2.7-3.2c1.1,0,2.1,0,3.2-0.1c3-0.2,5.1-2.4,5.3-5.4c0-0.4,0-0.9,0-1.3c0.1-2,0.8-2.7,2.7-2.7c2.5,0,5,0,7.6,0
		c0.7,0,1.1,0.1,1,0.9C32.6,37.7,32.7,39.6,32.7,41.6z"/>
	<path class="st0" d="M27.5,90.4c0,3.4,0,6.8,0,10.2c0,0.9-0.3,1.1-1.1,1.1c-3.8,0-7.6,0-11.3,0c-0.9,0-1-0.3-1-1.1c0-6,0-12,0-18
		c0-4,2.8-6.6,6.8-6.6c0.7,0,1.4,0,2,0c3,0,4.6,1.6,4.6,4.7C27.5,83.9,27.5,87.2,27.5,90.4z"/>
	<path class="st0" d="M23.7,22.1c2.3,0,4.7,0,7,0c3.4,0.1,5.8,3.3,4.8,6.6c-0.3,1.2-1.3,1.5-2.4,1.5c-2.8,0-5.6,0-8.4,0
		c-5.3,0-7.8,2.5-8,7.8c0,1.2-0.5,1.8-1.7,1.7c-2,0-4.1,0-6.1,0c-0.8,0-1.6-0.1-1.6-1.1c0.1-3.3-0.5-6.6,0.5-9.8
		c1.2-3.7,4.8-6.5,8.7-6.7C18.9,22.1,21.3,22.1,23.7,22.1C23.7,22.1,23.7,22.1,23.7,22.1z"/>
	<path class="st0" d="M41.4,118.5c-6.1,0-12.1,0-18.2,0c-3.2,0-4.9-1.7-5-4.9c0-2,0-4.1,0-6.1c0-0.8,0.1-1.3,1.1-1.2
		c1.2,0.1,2.7-0.5,3.5,0.2c0.7,0.7,0.2,2.2,0.2,3.4c0.1,2.6,1.2,3.7,3.8,3.7c7.4,0,14.8,0,22.3,0c1,0,1.5,0.1,1.7,1.3
		c0.2,1.5,1.4,2.2,3.2,2.3c2,0,4,0,6,0c0.5,0,1.2-0.2,1.2,0.8c-0.1,1-0.8,0.5-1.2,0.5C53.8,118.5,47.6,118.5,41.4,118.5z"/>
	<path class="st0" d="M21.3,68.4c1.7,0,3.4,0,5.1,0c0.8,0,1.1,0.1,1.1,1c-0.1,2.6,0.7,2.8-2.6,2.2c-2.4-0.5-4.8-0.4-7.2,0.2
		c-0.8,0.2-1.9,0.5-2.3,0c-0.6-0.8-0.2-1.9-0.2-2.9c0-0.6,0.6-0.4,0.9-0.4C17.8,68.4,19.6,68.4,21.3,68.4z"/>
	<path class="st0" d="M21.4,63.8c-0.7,0-1.4-0.1-2,0c-0.9,0.1-1.1-0.2-1.1-1.1c0-1,0.2-1.3,1.3-1.1c1.3,0.3,2.7,0.2,4,0
		c0.5-0.1,1.1-0.3,0.9,0.5c-0.1,0.6,0.7,1.7-0.7,1.7C22.9,63.8,22.2,63.8,21.4,63.8z"/>
	<path class="st0" d="M75.3,82.7c6.9,0,13.9,0,20.8,0c1,0,1.3,0.3,1.3,1.3c-0.1,5.7-0.1,11.4,0,17c0,1-0.2,1.3-1.3,1.3
		c-13.9,0-27.8,0-41.8,0c-1.1,0-1.3-0.3-1.3-1.4C53,95.3,53,89.7,53,84c0-1.1,0.2-1.4,1.3-1.4C61.3,82.7,68.3,82.7,75.3,82.7z"/>
	<path class="st1" d="M69.1,91.7c0,1,0,2,0,3c0,1.7-0.7,2.6-2.4,2.7c-2.2,0.1-4.5,0.1-6.7,0c-1.6-0.1-2.3-0.9-2.4-2.5
		c0-2.1-0.1-4.3,0-6.4c0-1.8,0.9-2.6,2.6-2.6c2.1,0,4.2,0,6.2,0c1.7,0,2.5,0.8,2.6,2.6c0,0.1,0,0.2,0,0.3
		C69.1,89.8,69.1,90.7,69.1,91.7z"/>
	<path class="st1" d="M82.1,89.4c2.6,0,5.1,0,7.7,0c1.6,0,2.5,0.8,2.6,2.1c0.1,1.3-0.9,2.5-2.5,2.5c-5.3,0.1-10.7,0.1-16,0
		c-1.6,0-2.6-1.1-2.5-2.5c0.1-1.3,1-2.1,2.6-2.1C76.8,89.4,79.5,89.4,82.1,89.4z"/>
	<path class="st4" d="M64.4,91.7c0.2,0.9-0.1,1.2-1,1.2c-1,0-1.1-0.4-1.2-1.3c0-1,0.3-1.1,1.2-1.1C64.3,90.5,64.6,90.8,64.4,91.7z"
		/>
</g>
<g>
	<g>
		<g>
			<path class="st5" d="M134.2,89.4c0,0.6-0.1,1.1-0.3,1.6l-0.7-0.7c0.1-0.3,0.1-0.6,0.1-0.9c0-2.4-2-4.4-4.4-4.4s-4.3,2-4.3,4.4
				c0,0.3,0,0.6,0.1,0.9L124,91c-0.2-0.5-0.3-1.1-0.3-1.6c0-2.9,2.4-5.3,5.3-5.3C131.9,84.1,134.2,86.5,134.2,89.4z"/>
			<path class="st5" d="M129,86.5l-3.8,3.8l-0.3,0.3l-0.7,0.7c0.7,1.6,2,2.8,3.7,3.1c0.1,0,0.1,0,0.2,0c0,0,0,0,0,0
				c0.1,0,0.1,0,0.2,0c0,0,0.1,0,0.1,0c0.2,0,0.4,0,0.7,0c1.9,0,3.5-1,4.4-2.4c0.2-0.3,0.3-0.5,0.4-0.8c0,0,0,0,0,0L129,86.5z
				 M132.5,91.9c-0.8,1.1-2.1,1.9-3.6,1.9c-1.5,0-2.8-0.7-3.6-1.9c-0.1-0.1-0.1-0.2-0.2-0.3l0.3-0.3l3.5-3.5l3.5,3.5l0.3,0.3
				C132.7,91.7,132.6,91.8,132.5,91.9z"/>
			<g>
				<rect x="127.7" y="90.2" class="st5" width="1.1" height="1.1"/>
				<rect x="127.7" y="91.6" class="st5" width="1.1" height="1.1"/>
				<rect x="129.1" y="90.2" class="st5" width="1.1" height="1.1"/>
				<rect x="129.1" y="91.6" class="st5" width="1.1" height="1.1"/>
			</g>
		</g>
	</g>
</g>
<g>
	<g>
		<g>
			<path class="st1" d="M60.3,76c-0.3-0.1-0.5-0.4-0.6-0.6c-0.2-0.3-0.2-0.6-0.2-0.9c0-0.3,0.1-0.6,0.2-0.9c0.2-0.3,0.4-0.5,0.6-0.6
				c0.3-0.1,0.6-0.2,0.9-0.2c0.3,0,0.6,0.1,0.8,0.2c0.2,0.1,0.4,0.3,0.6,0.5L62,74c-0.2-0.3-0.5-0.4-0.8-0.4c-0.2,0-0.3,0-0.5,0.1
				c-0.1,0.1-0.2,0.2-0.3,0.3c-0.1,0.1-0.1,0.3-0.1,0.5s0,0.4,0.1,0.5c0.1,0.1,0.2,0.3,0.3,0.3c0.1,0.1,0.3,0.1,0.5,0.1
				c0.3,0,0.6-0.1,0.8-0.4l0.6,0.5c-0.2,0.2-0.4,0.4-0.6,0.5c-0.2,0.1-0.5,0.2-0.8,0.2C60.9,76.2,60.6,76.2,60.3,76z"/>
			<path class="st1" d="M63.8,73.6h-1v-0.7h3v0.7h-1v2.6h-0.9V73.6z"/>
		</g>
	</g>
	<g>
		<path d="M66.7,72.9h0.9v2.6h1.6v0.7h-2.5V72.9z"/>
		<path d="M69.9,75.8c-0.3-0.3-0.4-0.6-0.4-1.1v-1.8h0.9v1.8c0,0.5,0.2,0.8,0.6,0.8c0.4,0,0.6-0.3,0.6-0.8v-1.8h0.9v1.8
			c0,0.5-0.1,0.9-0.4,1.1c-0.3,0.3-0.7,0.4-1.1,0.4C70.5,76.2,70.2,76.1,69.9,75.8z"/>
		<path d="M75.2,76.2l-0.7-1l-0.7,1h-1.1l1.2-1.7l-1.2-1.6h1.1l0.7,1l0.7-1h1l-1.2,1.6l1.2,1.7H75.2z"/>
		<path d="M81,76c-0.3-0.1-0.5-0.4-0.7-0.6c-0.2-0.3-0.2-0.6-0.2-0.9c0-0.3,0.1-0.6,0.2-0.9c0.2-0.3,0.4-0.5,0.7-0.6
			c0.3-0.1,0.6-0.2,0.9-0.2c0.3,0,0.7,0.1,0.9,0.2c0.3,0.1,0.5,0.4,0.7,0.6c0.2,0.3,0.2,0.6,0.2,0.9c0,0.3-0.1,0.6-0.2,0.9
			c-0.2,0.3-0.4,0.5-0.7,0.6c-0.3,0.1-0.6,0.2-0.9,0.2C81.6,76.2,81.3,76.2,81,76z M82.4,75.4c0.1-0.1,0.2-0.2,0.3-0.3
			c0.1-0.1,0.1-0.3,0.1-0.5s0-0.4-0.1-0.5c-0.1-0.1-0.2-0.3-0.3-0.3c-0.1-0.1-0.3-0.1-0.5-0.1c-0.2,0-0.3,0-0.5,0.1
			c-0.1,0.1-0.2,0.2-0.3,0.3c-0.1,0.1-0.1,0.3-0.1,0.5s0,0.4,0.1,0.5c0.1,0.1,0.2,0.3,0.3,0.3c0.1,0.1,0.3,0.1,0.5,0.1
			C82.2,75.5,82.3,75.4,82.4,75.4z"/>
		<path d="M87.2,76.2l0-1.8l-0.9,1.4h-0.4l-0.8-1.4v1.7h-0.9v-3.3H85l1.2,1.9l1.1-1.9h0.8l0,3.3H87.2z"/>
		<path d="M91.1,75.5v0.7h-2.7v-3.3h2.6v0.7h-1.7v0.6h1.5v0.7h-1.5v0.6H91.1z"/>
		<g>
			<polygon class="st1" points="78.8,72.9 78.8,73.9 79.7,74.5 79.7,72.9 			"/>
			<polygon class="st1" points="77.5,72.9 76.6,72.9 76.6,74.5 77.5,73.9 			"/>
			<polygon points="78.2,73.8 77.7,74.1 76.6,74.9 76.6,76.2 77.5,76.2 77.5,74.9 78.8,74.9 78.8,76.2 79.7,76.2 79.7,74.9 
				78.7,74.1 			"/>
		</g>
	</g>
</g>
</svg>
