<?xml version="1.0" encoding="utf-8"?>
<!-- Generator: Adobe Illustrator 25.0.0, SVG Export Plug-In . SVG Version: 6.00 Build 0)  -->
<svg version="1.1" id="Layer_1" xmlns="http://www.w3.org/2000/svg" xmlns:xlink="http://www.w3.org/1999/xlink" x="0px" y="0px"
	 viewBox="0 0 150 150" style="enable-background:new 0 0 150 150;" xml:space="preserve">
<style type="text/css">
	.st0{fill:#FFFFFF;}
	.st1{fill:#DB2C27;}
	.st2{fill:#FDFDFD;}
	.st3{display:none;fill:#DB2C27;}
	.st4{fill:#DA3027;}
</style>
<g>
	<path class="st0" d="M0.1,102.1c0-33.6,0-67.3,0-100.9c0-1,0.2-1.2,1.2-1.2c49.1,0,98.3,0,147.4,0c1,0,1.2,0.2,1.2,1.2
		c0,49.1,0,98.3,0,147.4c0,1-0.2,1.2-1.2,1.2c-49.1,0-98.3,0-147.4,0c-1,0-1.2-0.2-1.2-1.2c0-14.2,0-28.5,0-42.7
		c0.4-0.1,0.5,0.2,0.6,0.5c0.7,2.9,2.9,4.8,4.8,6.8c6.2,6.5,12.3,13.2,18.4,19.7c2.9,3.1,5.8,6.3,8.8,9.4c4,4.2,10,4.4,13.9,0.5
		c3.4-3.5,3.6-9,0.5-12.8c-1.4-1.7-1.5-1.9-0.2-3.8c1.7-2.6,3.4-5.2,5.1-7.8c0.7-1,1.5-1.5,2.8-1.5c3.9,0.1,7.8,0.2,11.6,0.5
		c11,0.9,21.6-0.1,32.1-4.2c15-5.8,29.9-11.8,44.9-17.4c5.5-2.1,7.5-8.5,4.1-13.1c-1.7-2.3-4.1-3.2-6.8-3.4
		c-2.2-0.1-2.3-0.2-2.3-2.4c0-11.6,0-23.2,0-34.8c0-1.5,0.4-2.4,1.9-3c2.5-0.9,3.7-2.7,3.7-5.4c0-3.7,0-7.3,0-11
		c0-3.3-2.2-5.5-5.5-5.5c-2.5,0-5-0.1-7.4,0c-1.6,0.1-2.6-0.5-3.4-2c-1.3-2.5-2.7-5-4.2-7.3c-2.5-4-6.9-5.1-10.9-2.8
		c-6.4,3.7-12.8,7.4-19.2,11.1c-1.1,0.6-2.2,1-3.5,0.9c-2.4,0-4.7,0.1-7-1.4C77.2,12.5,71.3,9.3,65.6,6c-1.3-0.8-2.7-1.6-4.3-1.7
		c-3.7-0.4-6.3,1.3-8.1,4.4c-1.3,2.2-2.6,4.4-3.7,6.6c-0.9,1.6-2,2.3-3.8,2.2c-2.3-0.1-4.7,0-7,0c-3.2,0-5.5,2-5.7,5.2
		c-0.2,3.8-0.1,7.7,0,11.5c0.1,2.5,1.4,4.3,3.8,5.2c1.2,0.4,1.7,1.1,1.7,2.4c0,12.3,0,24.6,0,36.9c0,1.2-0.4,1.9-1.6,2.2
		c-7.5,2-13.5,6.3-18.3,12.4c-0.2,0.3-0.4,0.5-0.6,0.8c-1.9,2.5-1.7,2.5-4.6,1.2c-4.8-2.1-10.5,0.5-12.4,5.4
		C0.9,101.2,1,102,0.1,102.1z"/>
	<path class="st1" d="M0.1,102.1c0.6-1.4,1-2.9,2-4.1c3-3.9,8.5-5,12.7-2.5c1,0.6,1.4,0.4,2-0.5c5.1-7.3,11.8-12.5,20.5-14.8
		c0.8-0.2,0.9-0.5,0.9-1.2c0-12.7,0-25.3,0-38c0-0.8-0.3-1-0.9-1.1c-3.1-0.9-4.6-2.9-4.7-6.2c0-3.5,0-7,0-10.5
		c0-3.8,2.4-6.2,6.2-6.2c2.7,0,5.4-0.1,8,0c1,0,1.5-0.3,1.9-1.1c1.4-2.6,2.9-5.1,4.3-7.6c2.6-4.5,7.3-5.7,11.7-3.2
		c6.4,3.7,12.9,7.4,19.3,11.1c0.8,0.5,1.7,0.6,2.6,0.7c3.5,0.4,6.6-0.7,9.6-2.5c5.2-3.2,10.5-6.2,15.8-9.2c4.7-2.7,9.3-1.5,12,3.3
		c1.5,2.5,2.9,5,4.3,7.6c0.4,0.7,0.8,0.9,1.6,0.9c2.7-0.1,5.4,0,8.2,0c3.8,0,6.2,2.4,6.2,6.2c0,3.6,0,7.2,0,10.8
		c0,3.1-1.6,5.2-4.6,5.9c-1,0.2-1,0.8-1,1.5c0,12.1,0,24.2,0,36.3c0,1.1,0.2,1.4,1.4,1.4c4.1-0.1,7.4,2.1,8.8,5.5
		c1.9,4.7-0.4,9.7-5.4,11.7c-3.6,1.4-7.3,2.8-11,4.2c-12.8,5-25.4,10.1-38.4,14.7c-7.2,2.5-14.6,3.4-22.2,2.9
		c-5.9-0.4-11.8-0.5-17.6-0.8c-0.9,0-1.3,0.3-1.7,1c-1.9,3-3.8,6-5.8,8.9c-0.7,1-0.5,1.5,0.2,2.3c5.2,5.7,2.6,14.5-4.8,16.4
		c-3.7,0.9-7-0.2-9.7-3c-5.3-5.7-10.6-11.3-15.8-17c-4.2-4.5-8.3-9-12.6-13.5c-1.8-1.9-3.3-3.9-4-6.4C0.1,104.6,0.1,103.4,0.1,102.1
		z"/>
	<path class="st0" d="M132.9,60.3c0,6.3,0,12.6,0,18.9c0,0.8-0.2,1.2-1.1,1.4c-6.8,1.5-13.6,3.2-20.4,4.8c-0.6,0.1-0.9,0-1.1-0.6
		c-1.6-4.2-4.9-6.3-9.4-6c-5.1,0.4-10.2,0.9-15.2,1.6c-7.6,1.1-15.2,1.1-22.8-0.3c-5.8-1-11.7-1.7-17.7-1.1c-1,0.1-1.2-0.3-1.2-1.2
		c0-12.2,0-24.4,0-36.6c0-0.9,0.2-1.4,1.2-1.2c0.3,0.1,0.7,0,1,0c1.6-0.2,2.8-1.5,2.8-3c0-1.6-1.2-2.8-2.9-2.9
		c-2.1-0.1-4.3-0.1-6.4,0c-1,0-1.4-0.2-1.4-1.3c0.1-3,0.1-6,0-9.1c0-0.8,0.3-1.1,1.1-1.1c11.5,0,23.1,0,34.6,0c0.8,0,1.1,0.2,1.1,1
		c-0.1,3.1,0,6.2,0,9.4c0,0.8-0.2,1-1,1c-0.6-0.1-1.3,0-1.9,0c-1.6,0.1-2.7,1.3-2.8,2.8c0,1.6,1.1,2.8,2.7,3.1
		c0.9,0.1,2.3-0.4,2.7,0.2c0.5,0.8,0.2,2.1,0.2,3.1c0,6.9,0,13.8,0,20.8c0,2.8,1.7,4.1,4.4,3.3c2.5-0.7,5-1.5,7.5-2.3
		c1-0.4,1.9-0.3,2.9,0c2.4,0.8,4.8,1.5,7.2,2.2c3.1,0.9,4.6-0.2,4.6-3.5c0-7.5,0-14.9,0-22.4c0-1.1,0.2-1.5,1.4-1.5
		c9.4,0.1,18.9,0.1,28.3,0c1.3,0,1.5,0.4,1.5,1.6C132.9,47.8,132.9,54.1,132.9,60.3z"/>
	<path class="st0" d="M72.1,112.1c-4.5-0.2-11.9-0.5-19.2-0.9c-1.9-0.1-3.2,0.5-4.2,2.2c-2,3.2-4.1,6.3-6.2,9.6
		c-0.5,0.8-0.8,0.8-1.4,0.1c-6.7-7.2-13.4-14.4-20.1-21.6c-0.6-0.7-0.7-1.1-0.2-1.9C27.7,88.9,37.6,84.4,50,84.8
		c6,0.2,11.9,1.2,17.8,2c4.5,0.6,9,0.6,13.5,0.1c6.1-0.7,12.2-1.3,18.3-1.9c0.6-0.1,1.3-0.2,1.9-0.2c1.5-0.2,2.7,0.6,3.2,1.9
		c0.6,1.5-0.3,2.3-1.4,3c-2.4,1.4-5,2.3-7.6,3.3C90.3,94.9,84.7,96.6,79,98c-1.9,0.5-3,2-2.5,3.6c0.5,1.8,2,2.6,4,2.1
		c8-1.9,15.7-4.6,23.3-7.7c2-0.8,3.8-1.9,5.2-3.6c0.3-0.4,0.7-0.5,1.1-0.6c9.8-2.3,19.5-4.5,29.3-6.8c0.7-0.2,1.4-0.1,2.2,0.1
		c1.2,0.3,2,1.1,2.2,2.3c0.2,1.2-0.3,2.1-1.2,2.8c-0.4,0.3-0.8,0.5-1.3,0.7c-15.6,5.9-30.9,12.3-46.6,17.9
		C86.5,111.6,82.4,112.3,72.1,112.1z"/>
	<path class="st0" d="M120.2,22.8c5.7,0,11.4,0,17.1,0c1,0,1.3,0.3,1.3,1.3c-0.1,3-0.1,5.9,0,8.9c0,0.8-0.1,1.2-1.1,1.2
		c-11.5,0-23,0-34.4,0c-1,0-1.2-0.3-1.2-1.2c0.1-2.9,0.1-5.8,0-8.8c0-1.1,0.2-1.4,1.4-1.4C108.8,22.9,114.5,22.8,120.2,22.8z"/>
	<path class="st0" d="M9.7,100c1.6,0,2.6,0.7,3.5,1.6c8.4,9.1,16.8,18.1,25.3,27.2c1.4,1.5,2.8,3,4.2,4.5c1.7,1.9,1.7,4.2,0,5.7
		c-1.7,1.6-4.1,1.5-5.8-0.4C27,128.1,17.1,117.5,7.3,107c-1.2-1.3-1.7-2.8-0.9-4.5C7,100.9,8.3,100.2,9.7,100z"/>
	<path class="st0" d="M95.9,60.8c-2-0.6-3.9-1.1-5.7-1.7c-1.2-0.4-2.2-0.4-3.4,0c-1.9,0.7-3.8,1.1-5.8,1.7c0-6.7,0-13.3,0-19.9
		c0-0.7,0.2-0.8,0.8-0.8c4.4,0,8.9,0,13.3,0c0.7,0,0.8,0.3,0.8,0.9C95.9,47.5,95.9,54,95.9,60.8z"/>
	<path class="st0" d="M88.6,22.8c2.1,0,4.2,0,6.3,0c0.8,0,1.1,0.1,1.1,1c-0.1,3.1,0,6.2,0,9.4c0,0.7-0.2,1-1,1c-4.3,0-8.6,0-12.8,0
		c-0.8,0-1.1-0.2-1.1-1c0-3.1,0-6.2,0-9.4c0-0.8,0.3-1,1-1C84.2,22.8,86.4,22.8,88.6,22.8z"/>
	<path class="st2" d="M72.8,16.8c-5.9,0-11.8,0-18,0c1.3-2.3,2.6-4.4,3.9-6.5c0.5-0.8,1.5-0.9,2.4-0.5c3.9,2.2,7.8,4.5,11.7,6.8
		C72.9,16.6,72.8,16.7,72.8,16.8z"/>
	<path class="st2" d="M103.7,16.8c4.2-2.4,8-4.6,11.9-6.8c1.1-0.6,2.2-0.4,2.9,0.7c1.2,2,2.3,4,3.6,6.2
		C116,16.8,110,16.8,103.7,16.8z"/>
	<path class="st3" d="M56.4,37.1c0-1.7,1.3-2.9,3-2.9c1.6,0,2.9,1.3,2.9,2.9c0,1.6-1.4,3-3,3C57.7,40.1,56.4,38.7,56.4,37.1z"/>
</g>
<g>
	<g>
		<g>
			<path class="st4" d="M66.2,36.5c0,0.7-0.1,1.4-0.3,2l-0.9-0.9c0.1-0.4,0.1-0.7,0.1-1.1c0-2.9-2.4-5.3-5.3-5.3s-5.3,2.4-5.3,5.3
				c0,0.4,0,0.8,0.1,1.1l-0.9,0.9c-0.2-0.6-0.3-1.3-0.3-2c0-3.5,2.9-6.4,6.4-6.4C63.3,30.1,66.2,33,66.2,36.5z"/>
			<path class="st4" d="M59.8,33l-4.7,4.7l-0.4,0.4L53.8,39c0.8,1.9,2.5,3.4,4.6,3.8c0.1,0,0.1,0,0.2,0c0,0,0,0,0,0
				c0.1,0,0.1,0,0.2,0c0,0,0.1,0,0.1,0c0.3,0,0.5,0.1,0.8,0.1c2.3,0,4.3-1.2,5.4-2.9c0.2-0.3,0.4-0.7,0.5-1c0,0,0,0,0,0L59.8,33z
				 M64.1,39.6c-1,1.4-2.6,2.3-4.4,2.3c-1.8,0-3.4-0.9-4.4-2.3c-0.1-0.1-0.2-0.2-0.2-0.4l0.4-0.4l4.2-4.2l4.2,4.2l0.4,0.4
				C64.3,39.3,64.2,39.4,64.1,39.6z"/>
			<g>
				<rect x="58.2" y="37.5" class="st4" width="1.3" height="1.3"/>
				<rect x="58.2" y="39.3" class="st4" width="1.3" height="1.3"/>
				<rect x="60" y="37.5" class="st4" width="1.3" height="1.3"/>
				<rect x="60" y="39.3" class="st4" width="1.3" height="1.3"/>
			</g>
		</g>
	</g>
</g>
</svg>
