<?xml version="1.0" encoding="utf-8"?>
<!-- Generator: Adobe Illustrator 25.0.0, SVG Export Plug-In . SVG Version: 6.00 Build 0)  -->
<svg version="1.1" id="Layer_1" xmlns="http://www.w3.org/2000/svg" xmlns:xlink="http://www.w3.org/1999/xlink" x="0px" y="0px"
	 viewBox="0 0 150 150" style="enable-background:new 0 0 150 150;" xml:space="preserve">
<style type="text/css">
	.st0{fill:#DB2C27;}
	.st1{fill:#FFFFFF;}
</style>
<g>
	<path class="st0" d="M0,94.9c0-6.3,0-12.7,0-19c0.4-4,2.4-6.9,5.6-9.1c1-0.7,1-1.5,1-2.5c0.1-9.4,1.6-18.6,5.2-27.3
		c5.1-12.6,13.8-22,25.8-28.2c7.9-4,16.4-6.1,25.2-7.1C69,0.9,75.2,0.9,81.3,1.2c9.9,0.5,19.6,2.3,28.8,6.5
		c11.6,5.3,20.4,13.6,26.2,25c3.7,7.2,5.7,14.9,6.6,22.9c0.3,3.1,0.7,6.1,0.6,9.2c0,1,0.4,1.5,1.2,2c2.1,1.4,3.6,3.4,4.7,5.7
		c0.6,1.2,0.5,2.5,0.8,3.7c0,6.2,0,12.5,0,18.7c-0.8,7.4-7.6,11.8-14.1,11.5c-2.3-0.1-4.6,0-6.9,0c-1.2,0-1.9,0.4-2.3,1.5
		c-2.7,7.1-6.6,13.6-11.6,19.4c-8.4,9.8-18.5,17.1-31.2,20.5c-8.7,2.3-17.1,1-25.3-2.5c-6.8-2.9-12.8-7.1-18.2-12.1
		c-6.5-6-11.5-13-15.3-20.8c-0.8-1.5-1.3-3.1-2-4.7c-0.4-1-1.1-1.3-2.1-1.3c-2.6,0-5.3,0.1-7.9,0c-5.6-0.3-9.8-2.9-12.3-8
		C0.3,97.3,0.4,96.1,0,94.9z"/>
	<path class="st1" d="M0,94.9c0.8,2,1.4,4.2,2.8,6c2.8,3.4,6.4,5.1,10.8,5.1c2.7,0,5.4,0,8.1,0c0.9,0,1.4,0.2,1.7,1.1
		c3.9,10.5,10.1,19.4,18.4,26.8c7.5,6.7,15.9,11.7,25.8,13.9c7.7,1.7,15.2,0.7,22.4-2.4c17.5-7.5,29.4-20.5,36.5-38
		c0.4-1,0.8-1.4,2-1.4c2.5,0.1,5.1,0,7.6,0c6.9,0,11.9-3.9,13.6-10.5c0.1-0.2,0-0.5,0.3-0.6c0,18,0,35.9,0,53.9c0,1-0.2,1.2-1.2,1.2
		c-49.2,0-98.4,0-147.6,0c-1,0-1.2-0.2-1.2-1.2C0,130.8,0,112.9,0,94.9z"/>
	<path class="st1" d="M150,76.2c-0.6-1.8-1-3.7-2.1-5.3c-1-1.5-2.1-2.8-3.7-3.7c-1-0.6-1.2-1.3-1.3-2.3c-0.1-8.6-1.3-17-4.2-25.1
		c-6-16.7-17.5-27.8-34.2-33.8c-6.5-2.3-13.2-3.5-20.1-4.1C76.3,1.1,68.1,1.2,60,2.4c-14.9,2.2-28.1,7.7-38.3,19.2
		C15.2,28.9,11.3,37.5,9.1,47c-1.4,5.9-2,11.9-2.1,18c0,1-0.3,1.6-1.1,2.1c-3,1.9-4.8,4.7-5.6,8.2c-0.1,0.2,0,0.5-0.3,0.6
		C0,51,0,26.1,0,1.2C0,0.3,0.1,0,1.2,0c49.2,0,98.5,0,147.7,0c1.1,0,1.2,0.3,1.2,1.2C150,26.2,150,51.2,150,76.2z"/>
	<path class="st1" d="M95.4,69.6c-0.7-3.1-2.1-5.4-4-8c2.4,0.4,4.5,0.7,6.5,1c6.1,1.1,12.1,2.9,17.6,5.9c0.3,0.2,0.6,0.3,0.9,0.5
		c6.1,4.1,4.9,2.5,5.3,9c0.6,9.6-0.7,18.9-4.5,27.7c-6.4,14.6-16.9,25.2-31.7,31.3c-6.8,2.8-13.7,2.8-20.6,0.1
		c-10.9-4.3-19.4-11.5-26.1-21c2.7,1.1,5.5,2.1,8.4,2.8c4.5,1.1,9,1.7,13.6,2.1c0.5,0,0.9,0,1.3,0.5c2.2,3.3,5.6,4.8,9.4,5.3
		c4.3,0.6,8.5-0.1,12-2.9c4.5-3.6,4.4-8.7-0.1-12.3c-5.1-4.1-14.7-4-19.4,0.5c-1.6,1.5-3,2-5,1.7c-7.9-0.9-15.4-2.6-22.1-7.1
		c-1.4-0.9-2.6-2.1-3.8-3.2c-2-1.7-2.2-4.2-2.8-6.4c-1.5-6.3-2-12.7-1.6-19.2c0-0.8,0.3-1.1,1-1.2c12.5-2.3,22.2-14,24-26.7
		c0.3-1.8,0.4-3.6,0.6-5.5c0.9,0.4,1.2,1.2,1.6,1.9c4,5.8,9.1,10.5,15.5,13.7c4.6,2.3,9.6,3.7,14.5,5.3
		C88.9,66.3,92.1,67.5,95.4,69.6z"/>
	<path class="st1" d="M74.6,9.4c8.8,0.1,17.1,0.9,25.1,3.4c16.1,5,27,15.3,32.1,31.5c2,6.5,2.8,13.1,3.2,19.8c0,0.6-0.2,0.7-0.6,0.7
		c-0.1,0-0.2,0-0.3,0c-4.1,0.2-4,0.1-4.8-4c-2.1-10.9-6.1-20.9-13.8-29.1c-6.8-7.4-15.4-11.8-25.1-13.9c-12.3-2.6-24.6-2.3-36.6,1.7
		c-13,4.4-22.2,13.2-27.9,25.6c-2.7,6-4.4,12.2-5.5,18.7c-0.1,0.8-0.4,1.1-1.2,1c-1.3-0.1-2.9,0.4-3.8-0.3c-0.6-0.4-0.1-2.3,0-3.6
		c0.9-12.8,4.1-24.8,13-34.7c6.7-7.4,15.2-11.7,24.7-14.2C60.2,10.1,67.6,9.6,74.6,9.4z"/>
	<path class="st0" d="M55.6,74.7c4.3,0,7.7,3.5,7.7,7.7c0,4.2-3.6,7.7-7.8,7.7c-4.2,0-7.7-3.6-7.7-7.8
		C47.8,78.1,51.3,74.7,55.6,74.7z"/>
	<path class="st0" d="M94.5,74.7c4.3,0,7.7,3.5,7.7,7.7c0,4.2-3.6,7.7-7.8,7.7c-4.2,0-7.7-3.6-7.7-7.8
		C86.8,78.1,90.2,74.7,94.5,74.7z"/>
</g>
<g>
	<g>
		<g>
			<path class="st1" d="M79.1,117.7c0,0.6-0.1,1.2-0.3,1.7l-0.8-0.8c0.1-0.3,0.1-0.6,0.1-1c0-2.5-2-4.6-4.6-4.6s-4.6,2-4.6,4.6
				c0,0.3,0,0.6,0.1,1l-0.8,0.8c-0.2-0.5-0.3-1.1-0.3-1.7c0-3,2.5-5.5,5.5-5.5C76.6,112.2,79.1,114.6,79.1,117.7z"/>
			<path class="st1" d="M73.6,114.7l-4,4l-0.3,0.3l-0.7,0.7c0.7,1.6,2.1,2.9,3.9,3.3c0.1,0,0.1,0,0.2,0c0,0,0,0,0,0
				c0.1,0,0.1,0,0.2,0c0,0,0.1,0,0.1,0c0.2,0,0.5,0,0.7,0c1.9,0,3.6-1,4.6-2.5c0.2-0.3,0.3-0.6,0.5-0.9c0,0,0,0,0,0L73.6,114.7z
				 M77.3,120.2c-0.8,1.2-2.2,2-3.7,2c-1.5,0-2.9-0.8-3.7-2c-0.1-0.1-0.1-0.2-0.2-0.3l0.3-0.3l3.6-3.6l3.6,3.6l0.3,0.3
				C77.5,120,77.4,120.1,77.3,120.2z"/>
			<g>
				<rect x="72.2" y="118.5" class="st1" width="1.2" height="1.2"/>
				<rect x="72.2" y="120" class="st1" width="1.2" height="1.2"/>
				<rect x="73.8" y="118.5" class="st1" width="1.2" height="1.2"/>
				<rect x="73.8" y="120" class="st1" width="1.2" height="1.2"/>
			</g>
		</g>
	</g>
</g>
</svg>
